<svg width="29px" height="29px" viewBox="0 0 29 29" version="1.1" xmlns="http://www.w3.org/2000/svg" xmlns:xlink="http://www.w3.org/1999/xlink">
        <g id="Icon">
            <rect id="Background" fill="url(#linearGradient-1)" x="0" y="0" width="29" height="29"></rect>
            <g id="Group" transform="translate(0.906250, 1.642578)" fill="#0515CD" fill-rule="nonzero">
                <g id="E" transform="translate(8.496094, 12.489258) scale(-1, 1) rotate(-180.000000) translate(-8.496094, -12.489258) translate(0.000000, 0.000000)">
                    <path d="M12.3767071,12.1027173 C13.2190108,12.1027173 13.7690867,11.525128 14.0269348,10.3699494 C14.130074,9.9434219 14.1816436,9.49912245 14.1816436,9.03705101 C14.1816436,7.95296032 13.9152006,6.76223777 13.3823146,5.46488335 C12.4540615,3.22561407 11.0530871,1.65279399 9.17939112,0.746423093 C8.14799888,0.248807697 7.03925219,0 5.85315108,0 C3.30905017,0 1.5728732,0.959686834 0.644620163,2.8790605 C0.214873388,3.76765942 -7.10542736e-15,4.71846028 -7.10542736e-15,5.73146303 C-7.10542736e-15,6.74446579 0.180493646,7.80189851 0.541480938,8.90376118 C1.33221501,11.3207502 2.74178444,13.2934398 4.77018921,14.82183 C6.02504979,15.7459729 7.40883441,16.3857641 8.92154307,16.7412036 C7.54635337,17.256591 6.85875855,18.1451899 6.85875855,19.4070004 C6.85875855,20.6688109 7.46899895,21.8639764 8.68947981,22.992497 C9.90996064,24.1210177 11.4484541,24.685278 13.3049602,24.685278 C13.6143779,24.685278 13.8464411,24.5608741 14.00115,24.3120664 C14.1558588,24.0632587 14.2246183,23.814451 14.2074284,23.5656433 L14.2074284,23.2190898 C14.0699094,23.2901777 13.7776816,23.3257216 13.330745,23.3257216 C11.7664667,23.3257216 10.4514416,22.7570183 9.38566958,21.6196117 C8.62931526,20.8198727 8.25113809,20.0290196 8.25113809,19.2470526 C8.25113809,17.7719784 9.32550504,17.0344413 11.4742389,17.0344413 C11.6633275,17.0344413 11.8223338,16.9766824 11.9512578,16.8611645 C12.0801819,16.7456466 12.1876186,16.5723698 12.2735679,16.3413341 C9.29972021,16.3413341 6.80718893,15.1594976 4.79597401,12.7958245 C2.9050882,10.5920991 1.9596453,8.1395661 1.9596453,5.43822539 C1.9596453,3.90983525 2.38939207,2.72799868 3.24888563,1.8927157 C3.9192906,1.21738052 4.79597401,0.879712929 5.8789359,0.879712929 C8.31989759,0.879712929 10.1935935,1.94603163 11.5000237,4.07866904 C12.3595173,5.46488335 12.789264,6.92218559 12.789264,8.45057573 C12.789264,10.1211417 12.3853021,11.1074865 11.5773781,11.4096101 C11.4398592,11.4629261 11.2937453,11.489584 11.1390364,11.489584 C11.3625048,11.8983395 11.7750616,12.1027173 12.3767071,12.1027173 Z M15.1098966,18.6605773 C15.1098966,18.5717174 15.0325422,18.5272875 14.8778334,18.5272875 C14.7231245,18.5272875 14.5727132,18.5628314 14.4265993,18.6339193 C14.2804854,18.7050073 14.2074284,18.8027531 14.2074284,18.927157 C14.2074284,20.7398988 14.4051119,22.201644 14.8004789,23.3123927 C15.195846,24.4231413 15.720137,24.9785156 16.3733521,24.9785156 C16.5452509,24.9785156 16.6913648,24.9118707 16.8116939,24.7785809 C16.932023,24.645291 16.9921875,24.4809002 16.9921875,24.2854085 C16.2014534,23.4678975 15.6427826,22.2771749 15.3161751,20.7132408 C15.1786561,20.0556776 15.1098966,19.3714564 15.1098966,18.6605773 Z" id="Shape"></path>
                </g>
                <g id="P" transform="translate(19.257812, 14.896484) scale(-1, 1) rotate(-180.000000) translate(-19.257812, -14.896484) translate(11.328125, 4.134766)">
                    <path d="M14.4176136,18.9257813 C14.4176136,20.0866386 14.0627185,20.6670673 13.3529283,20.6670673 C12.4065414,20.6670673 11.4120957,19.6441807 10.3695914,17.5984075 C9.32708698,15.5526342 8.44354604,13.2499499 7.71896854,10.6903546 C6.99439103,8.13075922 6.39180872,5.83283253 5.91122159,3.79657453 C5.43063448,1.7603165 5.1903409,0.618489583 5.1903409,0.371093751 C5.1903409,0.123697917 5.08682985,0 4.8798077,0 C4.43618882,0 4.21437938,0.761217948 4.21437938,2.28365384 C4.21437938,5.95653046 4.53600307,9.52473959 5.17925044,12.9882812 C5.82249782,16.4518229 6.53598486,18.7640224 7.31971155,19.9248798 C5.20512822,19.5442708 3.48980187,18.5832332 2.17373252,17.0417668 C1.41958042,16.1853966 1.04250437,15.2529047 1.04250437,14.2442909 C1.04250437,13.7494992 1.19037733,13.5021034 1.48612325,13.5021034 C1.42697407,13.2356771 1.26431381,13.1024639 0.998142484,13.1024639 C0.731971155,13.1024639 0.499071242,13.2356771 0.299442745,13.5021034 C0.0998142484,13.7685296 0,14.1396234 0,14.6153846 C0,15.7381811 0.528645833,16.7800982 1.5859375,17.7411358 C2.64322918,18.7021735 3.78554778,19.4158153 5.01289335,19.8820613 C6.24023892,20.3483073 7.2827433,20.5814303 8.14040646,20.5814303 C8.37700322,20.5814303 8.49530158,20.4291867 8.49530158,20.1246995 C7.56370192,17.346254 6.69125145,13.1405248 5.87795018,7.50751201 L6.05539773,7.50751201 C6.9278482,11.0091146 7.94077798,14.1015625 9.09418708,16.7848558 C9.71525351,18.2502003 10.4028628,19.4063001 11.1570149,20.253155 C11.911167,21.10001 12.6801064,21.5234375 13.463833,21.5234375 C15.060861,21.5234375 15.859375,20.4196715 15.859375,18.2121394 C15.859375,16.880008 15.4970863,15.395633 14.7725088,13.7590144 C13.8556964,11.6656651 12.7022873,10.1812901 11.3122815,9.30588943 C10.5729167,8.83012822 9.83355187,8.59224761 9.09418708,8.59224761 C8.91673951,8.59224761 8.77995703,8.65885418 8.6838396,8.79206731 C8.58772219,8.92528045 8.52487616,9.11558494 8.49530158,9.36298076 C9.88530741,9.36298076 11.2013768,10.4286859 12.4435096,12.5600961 C13.463833,14.291867 14.0922931,16.0616987 14.3288899,17.8695913 C14.3880391,18.2502003 14.4176136,18.6022636 14.4176136,18.9257813 Z" id="Path"></path>
                </g>
                <g id="S" transform="translate(7.278320, 16.369141) scale(-1, 1) rotate(-180.000000) translate(-7.278320, -16.369141) translate(3.285156, 10.761719)">
                    <path d="M0.734487105,1.41838324 C0.734487105,0.825386856 1.08560045,0.46878768 1.78782714,0.34858571 C1.92287074,0.324545317 2.07592014,0.312525121 2.24697536,0.312525121 C3.37233866,0.312525121 4.26362638,0.635067072 4.92083853,1.28015097 C5.5780507,1.92523488 5.90665677,2.73659817 5.90665677,3.71424085 C5.90665677,4.09888715 5.82788133,4.45348296 5.67033049,4.77802827 C5.51277962,5.10257359 5.3169664,5.37102467 5.08289084,5.5833815 C4.84881529,5.79573829 4.59448317,6.01009849 4.31989452,6.22646203 C4.0453059,6.44282558 3.79097378,6.63915545 3.55689823,6.81545168 C3.32282267,6.99174788 3.12700945,7.2041047 2.96945859,7.45252212 C2.81190774,7.7009395 2.7331323,7.96538383 2.7331323,8.24585511 C2.7331323,8.98309385 3.10450219,9.66223497 3.84724195,10.2832785 C4.58998172,10.904322 5.38898966,11.2148438 6.24426577,11.2148438 C6.41532097,11.2148438 6.54136167,11.1587495 6.62238782,11.046561 C6.70341398,10.9343725 6.74392705,10.822184 6.74392705,10.7099955 L6.73042271,10.5537329 C6.66740236,10.5857868 6.50985149,10.6018137 6.25777011,10.6018137 C5.68158411,10.6018137 5.12340391,10.3614098 4.58322954,9.88060189 C4.04305517,9.39979402 3.77296797,8.8428582 3.77296797,8.20979452 C3.77296797,7.95336363 3.85174342,7.70294288 4.00929426,7.45853222 C4.16684513,7.21412152 4.36265835,6.99976136 4.5967339,6.81545168 C4.83080946,6.63114197 5.08289084,6.42479528 5.35297804,6.19641154 C5.62306521,5.9680278 5.8751466,5.74365078 6.10922216,5.52328051 C6.34329773,5.30291021 6.53911093,5.03445916 6.6966618,4.71792729 C6.85421266,4.40139545 6.93298809,4.06683331 6.93298809,3.71424085 C6.93298809,2.74461164 6.48284277,1.88316419 5.58255215,1.12989851 C4.68226151,0.376632839 3.57040259,0 2.24697536,0 C1.13061498,0 0.423886837,0.320538585 0.12679093,0.961615756 C-0.107284633,1.49050442 -0.0172555704,2.07548734 0.396878119,2.71656451 C0.811011808,3.35764169 1.40970508,3.79036878 2.19295792,4.01474577 C2.48105093,4.09488043 2.73763377,4.13494774 2.9627064,4.13494774 C3.18777906,4.13494774 3.3430792,4.10089052 3.42860682,4.03277606 C3.51413443,3.96466164 3.57040259,3.85848321 3.59741129,3.71424085 C2.75113811,3.71424085 2.02640416,3.4097292 1.42320944,2.80070589 C0.964061215,2.3439384 0.734487105,1.88316419 0.734487105,1.41838324 Z M7.00050988,8.06555216 C7.00050988,8.02548481 6.95774608,8.00545117 6.87221847,8.00545117 C6.78669085,8.00545117 6.70791543,8.02147809 6.63589219,8.05353196 C6.56386892,8.0855858 6.5278573,8.12965987 6.5278573,8.18575413 C6.5278573,9.00312752 6.63139072,9.66023163 6.83845757,10.1570664 C7.04552442,10.6539012 7.32011306,10.9023186 7.6622235,10.9023186 C7.75225255,10.9023186 7.82877726,10.8742715 7.8917976,10.8181773 C7.95481795,10.762083 7.98632813,10.6899618 7.98632813,10.6018137 C7.58119734,10.2412078 7.28860289,9.70029894 7.10854476,8.97908712 C7.0365215,8.6906024 7.00050988,8.38609072 7.00050988,8.06555216 Z" id="Shape"></path>
                </g>
            </g>
        </g>
</svg>
