<svg width="200px" height="200px" viewBox="0 0 200 200" version="1.1" xmlns="http://www.w3.org/2000/svg" xmlns:xlink="http://www.w3.org/1999/xlink">
    <g id="logo">
        <circle id="Oval" stroke="#979797" stroke-width="2" fill-opacity="0.46" fill="#D8D8D8" cx="100" cy="100" r="99"></circle>
        <g id="ESP" transform="translate(12.724484, 2.804668)" fill="#0515CD" fill-rule="nonzero">
            <g id="E" transform="translate(62.275516, 87.195332) scale(1, -1) rotate(-6.000000) translate(-62.275516, -87.195332) translate(8.275516, 5.195332)">
                <path d="M78.6646434,79.4621131 C84.0182094,79.4621131 87.5144158,75.6698684 89.1532625,68.0853789 C89.8088012,65.284952 90.1365706,62.3678406 90.1365706,59.3340448 C90.1365706,52.2162931 88.4430956,44.3984347 85.0561457,35.8804696 C79.1562974,21.1782284 70.2518968,10.8516542 58.3429439,4.90074707 C51.7875569,1.63358236 44.7405159,0 37.2018209,0 C21.0318665,0 9.9969651,6.30096051 4.09711684,18.9028815 C1.36570561,24.7371042 2.84217094e-14,30.9797225 2.84217094e-14,37.6307364 C2.84217094e-14,44.2817503 1.14719272,51.2244753 3.44157815,58.4589114 C8.46737481,74.3279972 17.4264036,87.2799715 30.3186646,97.3148346 C38.2943854,103.382426 47.0895296,107.583067 56.7040971,109.916756 C47.9635812,113.300605 43.5933232,119.134827 43.5933232,127.419424 C43.5933232,135.70402 47.4719272,143.551049 55.2291351,150.960512 C62.9863429,158.369975 72.7647951,162.074707 84.5644917,162.074707 C86.5311077,162.074707 88.0060698,161.257915 88.9893778,159.624333 C89.9726859,157.990751 90.4097117,156.357168 90.3004552,154.723586 L90.3004552,152.448239 C89.4264036,152.914977 87.569044,153.148346 84.7283763,153.148346 C74.7860395,153.148346 66.4279211,149.414443 59.6540212,141.946638 C54.8467375,136.695838 52.4430956,131.50338 52.4430956,126.369264 C52.4430956,116.684454 59.2716237,111.842049 72.9286798,111.842049 C74.1305008,111.842049 75.1411229,111.462825 75.9605463,110.704376 C76.7799697,109.945927 77.4628225,108.808253 78.0091047,107.291355 C59.107739,107.291355 43.2655539,99.5318392 30.4825493,84.0128068 C18.4643399,69.5439345 12.4552352,53.4414799 12.4552352,35.7054429 C12.4552352,25.6705799 15.1866464,17.9110637 20.6494689,12.4268943 C24.9104704,7.99288509 30.4825493,5.77588047 37.3657056,5.77588047 C52.8801214,5.77588047 64.7890744,12.7769477 73.0925645,26.7790822 C78.5553869,35.8804696 81.2867982,45.4485948 81.2867982,55.4834578 C81.2867982,66.4517965 78.7192716,72.9277837 73.5842185,74.9114194 C72.7101669,75.2614728 71.7814871,75.4364995 70.7981791,75.4364995 C72.2185129,78.1202419 74.8406677,79.4621131 78.6646434,79.4621131 Z M96.0364188,122.518677 C96.0364188,121.935254 95.5447648,121.643543 94.5614568,121.643543 C93.5781487,121.643543 92.6221548,121.876912 91.693475,122.34365 C90.7647951,122.810388 90.3004552,123.452152 90.3004552,124.268943 C90.3004552,136.170758 91.5569044,145.768054 94.0698027,153.060832 C96.5827011,160.353611 99.9150228,164 104.066768,164 C105.159332,164 106.088012,163.562433 106.852807,162.6873 C107.617602,161.812166 108,160.732835 108,159.449306 C102.974203,154.081821 99.4233687,146.263963 97.3474962,135.995731 C96.4734446,131.678406 96.0364188,127.186055 96.0364188,122.518677 Z" id="Shape"></path>
            </g>
            <g id="P" transform="translate(117.630570, 114.524316) scale(1, -1) rotate(-13.000000) translate(-117.630570, -114.524316) translate(72.130570, 45.524316)">
                <path d="M82.7272727,121.344828 C82.7272727,128.787798 80.6909091,132.509284 76.6181818,132.509284 C71.1878788,132.509284 65.4818182,125.950928 59.5,112.834218 C53.5181818,99.7175066 48.4484848,84.9535809 44.2909091,68.5424403 C40.1333333,52.1312997 36.6757576,37.397878 33.9181818,24.3421751 C31.1606061,11.2864721 29.7818182,3.96551724 29.7818182,2.37931034 C29.7818182,0.793103448 29.1878788,0 28,0 C25.4545455,0 24.1818182,4.8806366 24.1818182,14.6419098 C24.1818182,38.1909814 26.0272727,61.0689655 29.7181818,83.2758621 C33.4090909,105.482759 37.5030303,120.307692 42,127.750663 C29.8666667,125.310345 20.0242424,119.148541 12.4727273,109.265252 C8.14545455,103.774536 5.98181818,97.795756 5.98181818,91.3289125 C5.98181818,88.1564987 6.83030303,86.5702918 8.52727273,86.5702918 C8.18787879,84.862069 7.25454545,84.0079576 5.72727273,84.0079576 C4.2,84.0079576 2.86363636,84.862069 1.71818182,86.5702918 C0.572727273,88.2785146 0,90.6578249 0,93.7082228 C0,100.907162 3.03333333,107.587533 9.1,113.749337 C15.1666667,119.911141 21.7212121,124.486737 28.7636364,127.476127 C35.8060606,130.465517 41.7878788,131.960212 46.7090909,131.960212 C48.0666667,131.960212 48.7454545,130.984085 48.7454545,129.03183 C43.4,111.217507 38.3939394,84.2519894 33.7272727,48.1352785 L34.7454545,48.1352785 C39.7515152,70.5862069 45.5636364,90.4137931 52.1818182,107.618037 C55.7454545,117.013263 59.6909091,124.425729 64.0181818,129.855438 C68.3454545,135.285146 72.7575758,138 77.2545455,138 C86.4181818,138 91,130.923077 91,116.769231 C91,108.228117 88.9212121,98.7108753 84.7636364,88.2175066 C79.5030303,74.795756 72.8848485,65.2785146 64.9090909,59.6657825 C60.6666667,56.6153846 56.4242424,55.0901857 52.1818182,55.0901857 C51.1636364,55.0901857 50.3787879,55.5172414 49.8272727,56.3713528 C49.2757576,57.2254642 48.9151515,58.4456233 48.7454545,60.0318302 C56.7212121,60.0318302 64.2727273,66.8647215 71.4,80.530504 C77.2545455,91.6339523 80.8606061,102.981432 82.2181818,114.572944 C82.5575758,117.013263 82.7272727,119.270557 82.7272727,121.344828 Z" id="Path"></path>
            </g>
            <g id="S" transform="translate(44.884115, 114.952252) scale(1, -1) rotate(-7.000000) translate(-44.884115, -114.952252) translate(21.884115, 71.452252)">
                <path d="M4.18931269,11.0032154 C4.18931269,6.40300107 6.19196677,3.63665595 10.1972749,2.70418006 C10.9675265,2.51768489 11.8404783,2.4244373 12.8161303,2.4244373 C19.2348933,2.4244373 24.3185537,4.92658092 28.0671113,9.93086817 C31.8156689,14.9351554 33.6899477,21.2293676 33.6899477,28.8135048 C33.6899477,31.7974277 33.2406343,34.5482315 32.3420075,37.0659164 C31.4433807,39.5836013 30.3265159,41.6661308 28.9914132,43.3135048 C27.6563105,44.9608789 26.20567,46.6237942 24.6394918,48.3022508 C23.0733136,49.9807074 21.6226732,51.5037513 20.2875705,52.8713826 C18.9524677,54.2390139 17.835603,55.886388 16.9369761,57.8135048 C16.0383493,59.7406217 15.5890359,61.7920686 15.5890359,63.9678457 C15.5890359,69.6870311 17.7072277,74.9555198 21.9436113,79.7733119 C26.179995,84.591104 30.7373167,87 35.6155767,87 C36.5912286,87 37.3101301,86.5648446 37.772281,85.6945338 C38.234432,84.8242229 38.4655075,83.9539121 38.4655075,83.0836013 L38.3884823,81.8713826 C38.0290316,82.1200429 37.1304047,82.244373 35.6926018,82.244373 C32.4061951,82.244373 29.2224886,80.3794212 26.1414824,76.6495177 C23.0604761,72.9196141 21.519973,68.5991426 21.519973,63.6881029 C21.519973,61.698821 21.9692864,59.7561629 22.8679132,57.8601286 C23.76654,55.9640943 24.8834048,54.301179 26.2185075,52.8713826 C27.5536102,51.4415863 28.9914132,49.840836 30.5319163,48.0691318 C32.0724194,46.2974277 33.5102224,44.556806 34.8453251,42.8472669 C36.1804278,41.1377278 37.2972926,39.0551983 38.1959194,36.5996785 C39.0945462,34.1441586 39.5438596,31.5487674 39.5438596,28.8135048 C39.5438596,21.2915327 36.9763544,14.6087889 31.841344,8.76527331 C26.7063335,2.92175777 20.3645956,0 12.8161303,0 C6.44871729,0 2.41773409,2.48660236 0.723180639,7.45980707 C-0.611922079,11.562701 -0.0984210336,16.1007503 2.26368377,21.073955 C4.62578858,26.0471597 8.04057053,29.4040729 12.5080296,31.1446945 C14.151233,31.7663451 15.6147109,32.0771704 16.8984636,32.0771704 C18.1822162,32.0771704 19.0680055,31.8129689 19.5558315,31.2845659 C20.0436575,30.7561629 20.3645956,29.9324759 20.5186459,28.8135048 C15.6917361,28.8135048 11.5580527,26.4512326 8.11759569,21.7266881 C5.49874036,18.1832797 4.18931269,14.6087889 4.18931269,11.0032154 Z M40.5451592,62.0333907 C40.5451592,61.7155328 40.3085337,61.5566038 39.8352827,61.5566038 C39.3620316,61.5566038 38.9261425,61.683747 38.5276153,61.9380334 C38.1290882,62.1923197 37.9298246,62.5419635 37.9298246,62.9869647 C37.9298246,69.4712675 38.5027074,74.6841384 39.648473,78.6255774 C40.7942387,82.5670164 42.3136236,84.5377358 44.2066277,84.5377358 C44.7047867,84.5377358 45.1282218,84.3152353 45.4769331,83.8702341 C45.8256444,83.4252329 46,82.8530885 46,82.153801 C43.7582846,79.2930792 42.1392679,75.0019964 41.14295,69.2805527 C40.7444228,66.9919753 40.5451592,64.5762546 40.5451592,62.0333907 Z" id="Shape"></path>
            </g>
        </g>
    </g>
</svg>